<svg width="336" height="151" xmlns="http://www.w3.org/2000/svg" fill="none">

 <g>
  <title>Layer 1</title>
  <path stroke="null" id="svg_1" fill="#1ED760" d="m-2,-2l339.99998,0l0,154l-339.99998,0l0,-154z"/>
  <path id="svg_2" fill="white" d="m154.07896,72.779c-5.277,-1.3135 -6.215,-2.2354 -6.215,-4.1725c0,-1.8301 1.65,-3.0617 4.106,-3.0617c2.379,0 4.737,0.9352 7.211,2.8605c0.073,0.0583 0.168,0.0816 0.259,0.0663c0.095,-0.0145 0.175,-0.0674 0.23,-0.147l2.577,-3.7913c0.105,-0.1562 0.076,-0.3714 -0.066,-0.4906c-2.945,-2.4659 -6.259,-3.6648 -10.134,-3.6648c-5.697,0 -9.679,3.5691 -9.679,8.6758c0,5.4762 3.434,7.4153 9.368,8.912c5.047,1.2141 5.901,2.2313 5.901,4.0492c0,2.0152 -1.722,3.2685 -4.496,3.2685c-3.08,0 -5.594,-1.0857 -8.404,-3.6228c-0.069,-0.0648 -0.164,-0.0915 -0.252,-0.0876c-0.095,0.0076 -0.179,0.0533 -0.237,0.1257l-2.89,3.5885c-0.121,0.1524 -0.106,0.3734 0.032,0.5029c3.27,3.0476 7.292,4.6552 11.635,4.6552c6.138,0 10.105,-3.5009 10.105,-8.9219c0.011,-4.5741 -2.613,-7.1074 -9.04,-8.7394l-0.011,-0.005zm22.94,-5.4323c-2.66,0 -4.842,1.0941 -6.645,3.336l0,-2.5235c0,-0.1992 -0.154,-0.3615 -0.343,-0.3615l-4.726,0c-0.19,0 -0.343,0.1623 -0.343,0.3615l0,28.0385c0,0.1981 0.153,0.3619 0.343,0.3619l4.726,0c0.189,0 0.343,-0.1638 0.343,-0.3619l0,-8.8495c1.803,2.1067 3.985,3.139 6.645,3.139c4.945,0 9.952,-3.9733 9.952,-11.5691c0.007,-7.5973 -5,-11.5718 -9.948,-11.5718l-0.004,0.0004zm4.456,11.5714c0,3.8663 -2.281,6.5672 -5.551,6.5672c-3.229,0 -5.667,-2.8228 -5.667,-6.5672c0,-3.7448 2.438,-6.5669 5.667,-6.5669c3.216,-0.0003 5.551,2.7612 5.551,6.5669zm18.324,-11.5714c-6.369,0 -11.357,5.1184 -11.357,11.6541c0,6.4655 4.956,11.5283 11.28,11.5283c6.39,0 11.393,-5.1009 11.393,-11.611c0,-6.488 -4.97,-11.5714 -11.316,-11.5714zm0,18.1767c-3.387,0 -5.942,-2.8419 -5.942,-6.6072c0,-3.7825 2.467,-6.5272 5.865,-6.5272c3.409,0 5.978,2.8407 5.978,6.6099c0,3.7817 -2.482,6.5245 -5.901,6.5245zm24.914,-17.7257l-5.2,0l0,-5.5489c0,-0.1989 -0.154,-0.3612 -0.343,-0.3612l-4.726,0c-0.19,0 -0.347,0.1623 -0.347,0.3612l0,5.5489l-2.27,0c-0.19,0 -0.343,0.1623 -0.343,0.3615l0,4.2389c0,0.1989 0.153,0.3615 0.343,0.3615l2.27,0l0,10.9695c0,4.4305 2.113,6.6781 6.284,6.6781c1.693,0 3.098,-0.3657 4.423,-1.1504c0.11,-0.061 0.175,-0.1829 0.175,-0.3124l0,-4.0381c0,-0.1219 -0.062,-0.24 -0.164,-0.3048c-0.102,-0.0685 -0.23,-0.0724 -0.336,-0.0152c-0.908,0.4762 -1.788,0.6971 -2.773,0.6971c-1.515,0 -2.193,-0.72 -2.193,-2.3276l0,-10.1943l5.2,0c0.19,0 0.343,-0.1623 0.343,-0.3615l0,-4.2385c0.007,-0.1992 -0.146,-0.3615 -0.339,-0.3615l-0.004,-0.0023zm18.115,-0.6598c0,-2.0049 0.738,-2.899 2.387,-2.899c0.985,0 1.777,0.2041 2.664,0.5127c0.11,0.0358 0.223,0.0179 0.31,-0.0503c0.092,-0.0682 0.143,-0.1775 0.143,-0.2933l0,-4.1562c0,-0.1588 -0.095,-0.2994 -0.245,-0.3463c-0.934,-0.2906 -2.131,-0.5889 -3.927,-0.5889c-4.361,0 -6.671,2.5653 -6.671,7.416l0,1.0438l-2.27,0c-0.189,0 -0.346,0.1623 -0.346,0.3611l0,4.2606c0,0.1989 0.157,0.3615 0.346,0.3615l2.27,0l0,16.9162c0,0.2019 0.157,0.3619 0.347,0.3619l4.722,0c0.194,0 0.347,-0.16 0.347,-0.3619l0,-16.915l4.412,0l6.759,16.915c-0.767,1.7752 -1.522,2.1295 -2.551,2.1295c-0.832,0 -1.712,-0.259 -2.606,-0.7733c-0.084,-0.0457 -0.186,-0.0533 -0.273,-0.0267c-0.092,0.0343 -0.168,0.1029 -0.205,0.1943l-1.602,3.6686c-0.077,0.1752 -0.011,0.3771 0.15,0.4686c1.671,0.9447 3.178,1.3485 5.043,1.3485c3.489,0 5.419,-1.699 7.116,-6.2628l8.197,-22.1094c0.044,-0.1112 0.029,-0.2369 -0.037,-0.3356c-0.062,-0.0979 -0.167,-0.1569 -0.281,-0.1569l-4.919,0c-0.15,0 -0.281,0.0979 -0.328,0.2423l-5.04,15.0224l-5.518,-15.0323c-0.051,-0.1399 -0.179,-0.2324 -0.321,-0.2324l-8.073,0l0,-0.6827zm-10.502,0.6598l-4.726,0c-0.19,0 -0.347,0.1623 -0.347,0.3615l0,21.5166c0,0.2019 0.157,0.3619 0.347,0.3619l4.726,0c0.189,0 0.346,-0.16 0.346,-0.3619l0,-21.515c0,-0.1993 -0.153,-0.3616 -0.346,-0.3616l0,-0.0015zm-2.336,-9.7977c-1.872,0 -3.39,1.5817 -3.39,3.5356c0,1.9551 1.518,3.5387 3.39,3.5387c1.872,0 3.387,-1.5836 3.387,-3.5387c0,-1.9535 -1.519,-3.5356 -3.387,-3.5356zm41.391,16.7162c-1.868,0 -3.324,-1.5676 -3.324,-3.4712c0,-1.9037 1.474,-3.4892 3.342,-3.4892c1.869,0 3.325,1.5672 3.325,3.4693c0,1.9037 -1.474,3.4911 -3.343,3.4911zm0.018,-6.6152c-1.704,0 -2.992,1.4133 -2.992,3.144c0,1.7299 1.281,3.1241 2.974,3.1241c1.704,0 2.993,-1.4121 2.993,-3.144c0,-1.7299 -1.281,-3.1241 -2.975,-3.1241zm0.738,3.4811l0.941,1.3745l-0.796,0l-0.846,-1.261l-0.726,0l0,1.261l-0.665,0l0,-3.6435l1.555,0c0.814,0 1.347,0.4332 1.347,1.1623c0.003,0.5974 -0.329,0.9623 -0.807,1.1067l-0.003,0zm-0.562,-1.6438l-0.865,0l0,1.1524l0.865,0c0.43,0 0.689,-0.2206 0.689,-0.5768c0,-0.3749 -0.259,-0.5756 -0.689,-0.5756z"/>
  <path stroke="null" id="svg_3" fill="white" d="m92.561,47c-16.878,0 -30.561,13.83528 -30.561,30.9017c0,17.06709 13.683,30.9014 30.561,30.9014c16.8798,0 30.561,-13.83431 30.561,-30.9014c0,-17.06525 -13.6812,-30.90024 -30.5614,-30.90024l0.0004,-0.00145zm14.015,44.56911c-0.5474,0.90782 -1.7225,1.19561 -2.6202,0.63844c-7.1754,-4.43188 -16.2084,-5.4356 -26.8463,-2.97793c-1.0251,0.23616 -2.0469,-0.41332 -2.2805,-1.45027c-0.2346,-1.03685 0.4051,-2.07011 1.4328,-2.30627c11.6415,-2.68937 21.6272,-1.53144 29.6829,3.44657c0.8977,0.55717 1.1824,1.74174 0.6313,2.64946zm3.7406,-8.41411c-0.6897,1.13352 -2.1568,1.49153 -3.2771,0.7941c-8.2148,-5.10568 -20.7369,-6.58433 -30.4533,-3.60194c-1.2601,0.38485 -2.5911,-0.33322 -2.9735,-1.60525c-0.3796,-1.27417 0.331,-2.6174 1.5889,-3.00486c11.0989,-3.4052 24.8968,-1.75568 34.3304,4.10603c1.1204,0.69743 1.4743,2.18054 0.7846,3.31192zm0.3212,-8.76186c-9.8497,-5.91557 -26.1004,-6.45956 -35.5044,-3.57346c-1.5101,0.46311 -3.1071,-0.39889 -3.5647,-1.92588c-0.4577,-1.52776 0.3941,-3.14144 1.9053,-3.60562c10.7952,-3.31376 28.741,-2.67348 40.0811,4.13363c1.3612,0.81522 1.8064,2.58902 0.9999,3.96063c-0.8029,1.37345 -2.5619,1.8262 -3.9158,1.01069l-0.0014,0z"/>
 </g>
</svg>